# xmcd CD database file
#
# Track frame offsets:
#	150
#	21450
#	44512
#	77800
#	100362
#	126175
#
# Disc length: 1982 seconds
#
# Revision: 0
# Processed by: cddbd v1.4PL0 Copyright (c) Steve Scherf et al.
# Submitted via: Feurio! 1.65 - http://www.feurio.com
#
DISCID=4e07bc06
DTITLE=Krokodil - Krokodil
DYEAR=1900
DGENRE=Blues
TTITLE0=Talking World War III Blues
TTITLE1=All I Ever Wanted
TTITLE2=There You Stand Entangled
TTITLE3=Little Girl
TTITLE4=Two To Twelf
TTITLE5=That's All Right, Mama
EXTD=ARD Bellaphon 288.09.122
EXTT0=
EXTT1=
EXTT2=
EXTT3=
EXTT4=
EXTT5=
PLAYORDER=
